<svg version="1.0" xmlns="http://www.w3.org/2000/svg"
 width="285.000000pt" height="285.000000pt" viewBox="0 0 285.000000 285.000000"
 preserveAspectRatio="xMidYMid meet">
<g transform="translate(0.000000,285.000000) scale(0.100000,-0.100000)"
fill="#000000" stroke="none">
<path d="M0 2616 c0 -179 3 -235 13 -239 9 -3 9 -11 0 -39 -10 -27 -13 -290
-13 -1186 l0 -1152 1425 0 1425 0 0 1425 0 1425 -1425 0 -1425 0 0 -234z m680
214 c0 -5 -23 -10 -51 -10 -31 0 -48 4 -44 10 3 6 26 10 51 10 24 0 44 -4 44
-10z m-324 -65 c-2 -7 0 -17 6 -23 7 -7 0 -16 -21 -28 -17 -10 -31 -22 -31
-26 0 -4 -7 -8 -15 -8 -8 0 -15 6 -15 13 0 21 35 48 54 41 9 -3 16 -2 16 4 0
6 -5 12 -12 14 -7 3 -9 12 -5 22 4 9 12 14 18 11 6 -4 8 -13 5 -20z m-172
-109 c-4 -10 -17 -22 -30 -27 -29 -10 -31 -25 -5 -39 19 -10 19 -11 -10 -42
-16 -18 -29 -36 -29 -40 0 -11 -38 -10 -44 1 -6 10 16 61 27 61 4 0 7 12 7 26
0 18 12 38 36 61 37 34 61 34 48 -1z m-60 -991 c4 -10 -1 -15 -14 -15 -11 0
-20 7 -20 15 0 8 6 15 14 15 8 0 16 -7 20 -15z m98 -180 c16 -14 24 -25 18
-25 -6 0 -18 7 -26 15 -9 8 -31 15 -50 15 -19 0 -34 5 -34 10 0 20 62 10 92
-15z m373 -490 c15 -31 25 -58 22 -61 -6 -7 -77 106 -77 124 0 25 24 -3 55
-63z"/>
</g>
</svg>